<svg xmlns="http://www.w3.org/2000/svg" xmlns:xlink="http://www.w3.org/1999/xlink" width="300" zoomAndPan="magnify" viewBox="0 0 224.87999 299.999988" height="400" preserveAspectRatio="xMidYMid meet" version="1.0"><defs><clipPath id="7795c6e0a6"><path d="M 0.339844 100 L 199 100 L 199 299.910156 L 0.339844 299.910156 Z M 0.339844 100 " clip-rule="nonzero"/></clipPath><clipPath id="020e5a2ea6"><path d="M 0.339844 89 L 210 89 L 210 299.910156 L 0.339844 299.910156 Z M 0.339844 89 " clip-rule="nonzero"/></clipPath><clipPath id="55ed8cb965"><path d="M 0.339844 78.777344 L 219.972656 78.777344 L 219.972656 299.910156 L 0.339844 299.910156 Z M 0.339844 78.777344 " clip-rule="nonzero"/></clipPath></defs><g clip-path="url(#7795c6e0a6)"><path fill="#f4b10e" d="M 196.03125 159.40625 C 194.351562 135.640625 190.863281 117.664062 179.335938 107.238281 C 173.460938 101.894531 164.449219 99.378906 155.21875 100.480469 C 145.984375 101.585938 137.8125 106.136719 133.308594 112.671875 C 123.679688 126.761719 126.019531 147.214844 128.492188 168.8125 C 128.804688 171.683594 129.15625 174.6875 129.464844 177.605469 C 130.789062 190.28125 131.320312 203.003906 131.144531 215.722656 C 130.921875 228.3125 129.640625 241.519531 121.558594 252.960938 C 112.152344 266.253906 94.835938 273.984375 75.179688 273.589844 C 55.390625 273.191406 38.738281 264.621094 30.65625 250.617188 C 26.28125 243.066406 25 235.292969 23.898438 228.445312 C 23.101562 223.542969 22.351562 218.949219 20.671875 216.738281 C 19.257812 214.839844 15.859375 213.425781 12.015625 213.160156 C 8.171875 212.898438 3.886719 214 0.0429688 216.210938 L 0.0429688 230.210938 C 0.617188 229.417969 1.28125 228.664062 1.988281 227.960938 C 4.816406 225.175781 8.390625 223.585938 11.261719 223.808594 C 11.574219 223.851562 11.925781 223.851562 12.234375 223.941406 C 12.675781 225.664062 13.074219 228.269531 13.382812 230.167969 C 14.53125 237.148438 16.078125 246.6875 21.421875 255.917969 C 31.40625 273.191406 51.414062 283.746094 74.957031 284.1875 C 84.675781 284.410156 94.394531 282.777344 103.492188 279.375 C 114.578125 275.089844 123.855469 268.066406 130.214844 259.054688 C 139.976562 245.230469 141.523438 229.460938 141.746094 215.855469 C 141.964844 202.691406 141.390625 189.574219 140.023438 176.457031 C 139.714844 173.453125 139.359375 170.492188 139.050781 167.578125 C 136.796875 147.964844 134.679688 129.457031 142.097656 118.636719 C 144.882812 114.570312 150.226562 111.746094 156.453125 110.992188 C 162.683594 110.242188 168.558594 111.789062 172.222656 115.101562 C 181.632812 123.625 184.148438 141.78125 185.476562 160.15625 C 188.742188 206.667969 188.964844 253.3125 186.003906 299.824219 L 196.648438 299.824219 C 199.566406 253.046875 199.390625 206.140625 196.03125 159.40625 Z M 196.03125 159.40625 " fill-opacity="1" fill-rule="nonzero"/></g><g clip-path="url(#020e5a2ea6)"><path fill="#df3c16" d="M 11.96875 213.207031 C 15.8125 213.472656 19.214844 214.882812 20.628906 216.785156 C 22.261719 218.992188 23.058594 223.585938 23.851562 228.488281 C 24.957031 235.335938 26.238281 243.109375 30.609375 250.664062 C 38.695312 264.664062 55.347656 273.234375 75.136719 273.632812 C 94.792969 274.03125 112.152344 266.300781 121.515625 253.003906 C 129.597656 241.5625 130.878906 228.355469 131.101562 215.769531 C 131.320312 203.046875 130.746094 190.324219 129.421875 177.648438 C 129.113281 174.734375 128.757812 171.730469 128.449219 168.859375 C 125.976562 147.214844 123.636719 126.808594 133.265625 112.714844 C 137.726562 106.179688 145.941406 101.585938 155.171875 100.527344 C 164.40625 99.464844 173.460938 101.9375 179.335938 107.238281 C 190.820312 117.664062 194.351562 135.640625 196.03125 159.40625 C 199.386719 206.140625 199.566406 253.046875 196.648438 299.824219 L 207.296875 299.824219 C 210.210938 252.828125 209.988281 205.652344 206.632812 158.65625 C 205.132812 137.453125 202.171875 113.601562 186.445312 99.378906 C 178.1875 91.910156 166.347656 88.464844 153.9375 89.925781 C 141.523438 91.382812 130.789062 97.523438 124.519531 106.710938 C 112.636719 124.070312 115.332031 147.433594 117.894531 170.050781 C 118.203125 172.921875 118.554688 175.835938 118.863281 178.707031 C 120.144531 190.945312 120.675781 203.222656 120.453125 215.546875 C 120.277344 226.414062 119.21875 237.722656 112.8125 246.820312 C 105.4375 257.246094 91.433594 263.296875 75.3125 262.988281 C 59.277344 262.679688 45.980469 256.050781 39.796875 245.320312 C 36.398438 239.445312 35.335938 232.996094 34.320312 226.722656 C 33.304688 220.449219 32.332031 214.664062 29.152344 210.378906 C 25.839844 205.960938 19.699219 203.046875 12.675781 202.605469 C 8.347656 202.339844 4.019531 202.957031 0 204.503906 L 0 216.253906 C 3.84375 214.046875 8.039062 212.941406 11.96875 213.207031 Z M 11.96875 213.207031 " fill-opacity="1" fill-rule="nonzero"/></g><g clip-path="url(#55ed8cb965)"><path fill="#4c0548" d="M 12.675781 202.605469 C 19.699219 203.089844 25.839844 206.007812 29.152344 210.421875 C 32.378906 214.707031 33.304688 220.582031 34.320312 226.765625 C 35.335938 232.949219 36.398438 239.445312 39.796875 245.320312 C 46.027344 256.050781 59.277344 262.679688 75.3125 262.988281 C 91.433594 263.296875 105.4375 257.289062 112.8125 246.820312 C 119.21875 237.722656 120.277344 226.414062 120.453125 215.546875 C 120.632812 203.265625 120.101562 190.945312 118.863281 178.707031 C 118.554688 175.835938 118.246094 172.878906 117.894531 170.050781 C 115.332031 147.433594 112.636719 124.070312 124.519531 106.710938 C 130.789062 97.523438 141.523438 91.425781 153.9375 89.925781 C 166.347656 88.421875 178.1875 91.910156 186.445312 99.378906 C 202.171875 113.644531 205.085938 137.453125 206.589844 158.699219 C 209.988281 205.652344 210.210938 252.828125 207.296875 299.824219 L 217.941406 299.824219 C 220.855469 252.5625 220.589844 205.121094 217.234375 157.902344 C 215.421875 132.902344 211.359375 107.59375 193.601562 91.515625 C 184.679688 83.386719 172.53125 78.96875 159.546875 78.96875 C 157.25 78.96875 154.996094 79.101562 152.699219 79.367188 C 137.238281 81.179688 123.769531 88.953125 115.773438 100.703125 C 101.683594 121.328125 104.6875 147.875 107.378906 171.242188 C 107.6875 174.070312 108.042969 176.984375 108.308594 179.8125 C 109.542969 191.605469 110.074219 203.488281 109.855469 215.371094 C 109.675781 225.972656 108.660156 234.320312 104.15625 240.679688 C 98.855469 248.234375 88.164062 252.5625 75.53125 252.339844 C 63.253906 252.121094 53.359375 247.484375 49.03125 239.972656 C 46.601562 235.777344 45.71875 230.519531 44.832031 225 C 43.640625 217.800781 42.449219 210.378906 37.679688 204.019531 C 32.464844 197.082031 23.632812 192.667969 13.429688 192.003906 C 8.921875 191.695312 4.371094 192.179688 0 193.375 L 0 204.503906 C 4.0625 203.003906 8.390625 202.339844 12.675781 202.605469 Z M 12.675781 202.605469 " fill-opacity="1" fill-rule="nonzero"/></g></svg>